<svg width="16" height="20" viewBox="0 0 16 20" fill="none" xmlns="http://www.w3.org/2000/svg">
<path d="M14.8765 15.29L13.5865 14V9C13.5865 5.93 11.9465 3.36 9.08648 2.68V2C9.08648 1.17 8.41648 0.5 7.58648 0.5C6.75648 0.5 6.08648 1.17 6.08648 2V2.68C3.21648 3.36 1.58648 5.92 1.58648 9V14L0.296477 15.29C-0.333523 15.92 0.106477 17 0.996477 17H14.1665C15.0665 17 15.5065 15.92 14.8765 15.29ZM11.5865 15H3.58648V9C3.58648 6.52 5.09648 4.5 7.58648 4.5C10.0765 4.5 11.5865 6.52 11.5865 9V15ZM7.58648 20C8.68648 20 9.58648 19.1 9.58648 18H5.58648C5.58648 19.1 6.47648 20 7.58648 20Z" fill="#456BF1"/>
</svg>
