<svg width="12" height="13" viewBox="0 0 12 13" fill="none" xmlns="http://www.w3.org/2000/svg">
<path d="M10.857 8.51141L9.20733 8.32307C8.81116 8.27761 8.42148 8.41399 8.14221 8.69326L6.94721 9.88827C5.10924 8.95304 3.6025 7.4528 2.66728 5.60833L3.86877 4.40683C4.14804 4.12757 4.28443 3.73789 4.23897 3.34172L4.05062 1.70508C3.97269 1.04913 3.42065 0.555542 2.7582 0.555542H1.63464C0.900747 0.555542 0.290256 1.16603 0.335718 1.89992C0.679931 7.4463 5.11574 11.8756 10.6556 12.2198C11.3895 12.2653 12 11.6548 12 10.9209V9.79734C12.0065 9.14139 11.5129 8.58935 10.857 8.51141V8.51141Z" fill="#456BF1"/>
</svg>
