<svg width="41" height="38" viewBox="0 0 41 38" fill="none" xmlns="http://www.w3.org/2000/svg">
<path d="M22.427 1.17201C22.4185 2.45447 22.3073 3.71142 22.1028 4.93509C21.1195 4.8419 20.1246 4.79087 19.1202 4.78199C19.0206 4.78088 18.92 4.78088 18.8204 4.78088C18.6996 4.78088 18.5799 4.78199 18.4591 4.7831C17.4599 4.79309 16.4693 4.84634 15.4913 4.93953C15.2254 4.96504 14.9595 4.99389 14.6956 5.02495C13.758 5.137 12.8319 5.28677 11.9186 5.47204C11.4779 5.56079 11.0403 5.65842 10.6059 5.76492C9.8621 5.94575 9.12679 6.1521 8.40102 6.38064C7.22389 6.75117 6.07112 7.18384 4.94909 7.67419C5.14722 8.83684 5.39621 9.98175 5.69287 11.1056C5.72042 11.2087 5.74797 11.3119 5.77658 11.4151C6.08278 12.54 6.43984 13.6439 6.8414 14.7222C6.87636 14.8165 6.91133 14.9108 6.94735 15.004C7.3595 16.0857 7.81722 17.1407 8.31943 18.1702C8.36393 18.2601 8.40737 18.3499 8.45293 18.4398C8.9668 19.4738 9.52623 20.48 10.128 21.4551C10.181 21.5439 10.2372 21.6315 10.2923 21.7203C10.9068 22.701 11.5648 23.6495 12.263 24.5648C12.3393 24.6658 12.4166 24.7656 12.495 24.8654C11.3306 25.3214 10.2245 25.8994 9.18824 26.5861C9.06216 26.4186 8.93925 26.2511 8.81847 26.0813C8.21348 25.246 7.63816 24.3862 7.09462 23.5042C6.95371 23.2779 6.81703 23.0482 6.68141 22.8186C6.18343 21.9766 5.71512 21.1157 5.27648 20.2359C5.13874 19.9608 5.00418 19.6845 4.8728 19.405C4.46701 18.5474 4.08981 17.6743 3.74017 16.7846C3.62151 16.4806 3.50496 16.1755 3.39265 15.8682C3.06737 14.9785 2.76965 14.0754 2.50265 13.158C2.41365 12.8507 2.32677 12.5433 2.24412 12.2338C1.99302 11.2897 1.77158 10.3323 1.58192 9.3627C1.52789 9.08535 1.47703 8.80689 1.42829 8.52732C1.24923 7.50335 1.1062 6.46606 1.00024 5.41768C2.13182 4.81971 3.29411 4.27943 4.48396 3.79574C5.57633 3.35198 6.69306 2.95814 7.82887 2.61644C7.89562 2.59648 7.96131 2.57651 8.02806 2.55654C9.19248 2.21262 10.3781 1.92307 11.5828 1.69121C11.5923 1.6901 11.6008 1.68788 11.6103 1.68566C12.7927 1.45823 13.9932 1.28628 15.2095 1.17201C15.2106 1.1709 15.2106 1.1709 15.2116 1.1709C16.3994 1.05885 17.603 1.00116 18.8193 1.00116C20.0356 1.00227 21.2393 1.05996 22.427 1.17201ZM36.6172 5.40547C35.7251 4.93509 34.8128 4.49909 33.8836 4.09971C33.6378 3.99432 33.3909 3.89114 33.143 3.79019C32.0358 3.34088 30.9032 2.94261 29.7504 2.59758C29.7017 2.58316 29.654 2.56874 29.6063 2.55543C28.4419 2.21151 27.2563 1.92196 26.0506 1.6901C26.0431 1.68899 26.0357 1.68677 26.0272 1.68566C25.9955 2.96923 25.8768 4.23062 25.6776 5.46205C26.0347 5.53305 26.3907 5.61071 26.7445 5.69281C27.571 5.88695 28.3868 6.11105 29.191 6.36399C29.9231 6.59253 30.6457 6.84658 31.3577 7.12282C31.7868 7.28812 32.2117 7.4623 32.6323 7.64535C33.7808 8.14458 34.8986 8.70372 35.9836 9.31943C35.8554 9.91962 35.7124 10.5143 35.5566 11.1033C35.3818 11.7634 35.1911 12.4169 34.9834 13.0614C34.8033 13.6206 34.6126 14.1742 34.4081 14.72C34.1697 15.3623 33.9133 15.9958 33.642 16.6193C33.4164 17.1418 33.178 17.6577 32.929 18.168C34.0235 18.695 35.1762 19.1121 36.3746 19.4039C36.471 19.202 36.5642 19 36.6564 18.7959C37.0908 17.8385 37.4902 16.8611 37.8547 15.866C37.9374 15.6419 38.0168 15.4178 38.0952 15.1926C38.4311 14.2219 38.7352 13.2345 39.0032 12.2316C39.0774 11.9531 39.1494 11.6736 39.2194 11.3918C39.4514 10.4499 39.6517 9.49361 39.8201 8.52621C39.8858 8.15567 39.9462 7.78181 40.0002 7.40683C38.9068 6.68461 37.7784 6.01564 36.6172 5.40547ZM29.085 10.2924C28.835 10.2058 28.5839 10.1204 28.3317 10.0405C27.9683 11.2542 27.535 12.4346 27.0349 13.5773C27.0317 13.5851 27.0285 13.5928 27.0243 13.5995C26.5115 14.771 25.9277 15.9026 25.2803 16.9876C25.2602 17.022 25.24 17.0564 25.2178 17.0908C24.5693 18.1713 23.8552 19.2053 23.0839 20.1871C23.1464 20.2503 23.2089 20.3114 23.2714 20.3735C24.4613 20.6331 25.6151 20.9959 26.7244 21.4518C27.1726 20.8306 27.5996 20.1927 28.0054 19.5392C28.2703 19.1154 28.5245 18.685 28.7714 18.2479C29.1391 17.5955 29.4866 16.9277 29.8129 16.2476C30.0291 15.7983 30.2346 15.3435 30.4317 14.882C30.7421 14.1564 31.0282 13.4176 31.2899 12.6654C31.4425 12.2305 31.5855 11.7912 31.7201 11.3474C30.8608 10.9569 29.9814 10.6052 29.085 10.2924ZM24.1243 9.00991C23.1517 8.84239 22.1653 8.72036 21.1662 8.64603C20.7996 8.61829 20.4308 8.59722 20.0611 8.58279C19.65 8.56726 19.2368 8.55839 18.8204 8.55839C18.3118 8.55839 17.8064 8.57059 17.3031 8.595C16.963 8.61053 16.624 8.63272 16.287 8.66045C15.1618 8.75142 14.0515 8.9023 12.9601 9.11198H12.9591C12.8616 9.12973 12.7652 9.14859 12.6688 9.16745C11.4768 9.40708 10.3082 9.71438 9.16705 10.086C9.39697 10.9613 9.66079 11.8211 9.95534 12.6665C10.0719 13.0026 10.1937 13.3366 10.3219 13.6672C10.6578 14.5458 11.0297 15.4067 11.4334 16.2476C11.5743 16.5438 11.7216 16.8367 11.871 17.1274C12.2958 17.9528 12.7525 18.756 13.2399 19.5381C13.4391 19.8587 13.6435 20.1771 13.8544 20.4911C14.3354 21.21 14.8429 21.9089 15.3759 22.5867C15.7096 23.0127 16.054 23.4299 16.4078 23.8381C16.8687 24.3695 17.3445 24.8865 17.8361 25.3869C18.5671 26.1313 19.3321 26.8402 20.1278 27.5102C20.292 27.6489 20.4563 27.7843 20.6226 27.9185C20.7455 27.8198 20.8663 27.721 20.9882 27.619C21.8305 26.9178 22.6389 26.1723 23.4102 25.388C22.7957 24.9165 22.2002 24.4195 21.6239 23.8992C21.2838 23.5919 20.949 23.2757 20.6226 22.9506C19.7485 22.0842 18.9263 21.1623 18.1624 20.1882C18.0904 20.0972 18.0183 20.0052 17.9484 19.912C18.1158 19.9053 18.2821 19.8998 18.4506 19.8976C19.2251 19.1032 19.9509 18.2568 20.6226 17.3648C20.896 17.002 21.1598 16.6315 21.4151 16.2543C20.8642 16.1955 20.3101 16.1544 19.7496 16.1345C19.4402 16.1223 19.1308 16.1167 18.8183 16.1167C18.1539 16.1167 17.496 16.1445 16.8444 16.1966H16.8433C16.4205 16.231 15.9999 16.2754 15.5835 16.3308C15.0866 15.4489 14.631 14.538 14.221 13.6017C14.1013 13.3299 13.9858 13.0559 13.8745 12.7808C14.2538 12.7109 14.6363 12.651 15.0209 12.5977C15.8865 12.4779 16.7638 12.4002 17.6517 12.3625C18.0384 12.347 18.4273 12.3381 18.8183 12.3381C19.0545 12.3381 19.2897 12.3414 19.5239 12.347H19.525C20.2931 12.3658 21.0528 12.4169 21.805 12.4979C22.3507 12.5556 22.8911 12.631 23.4261 12.722C23.8542 11.8178 24.2324 10.8848 24.5609 9.92517C24.6499 9.66557 24.7357 9.40264 24.8162 9.13971C24.5874 9.09201 24.3564 9.04985 24.1243 9.00991ZM31.1204 21.454C30.7654 22.0309 30.3957 22.5978 30.0111 23.1525C29.6794 23.6318 29.3383 24.1011 28.9854 24.5637C28.5796 25.0973 28.158 25.6187 27.7235 26.1279C27.3347 26.5861 26.9353 27.0343 26.5231 27.4714C26.0537 27.974 25.5695 28.4621 25.0716 28.9369C24.6361 29.3519 24.19 29.7568 23.7355 30.1495C23.122 30.6798 22.4916 31.1901 21.8453 31.676C21.4438 31.98 21.0369 32.274 20.6226 32.5591C20.007 32.1342 19.4042 31.6894 18.8161 31.2267C18.3722 30.8784 17.9367 30.5189 17.5097 30.1495C16.6981 29.4484 15.9162 28.7106 15.1671 27.9374C13.8904 28.2857 12.6836 28.8127 11.5701 29.4905C12.3658 30.3769 13.2007 31.2267 14.0684 32.0366C14.1479 32.1109 14.2273 32.1841 14.3068 32.2563C15.2286 33.1038 16.1875 33.9059 17.1813 34.6625C17.3709 34.8057 17.5617 34.9488 17.7534 35.0874C18.6816 35.7686 19.6383 36.4065 20.6216 37.0012C21.1863 36.6606 21.7404 36.3045 22.2871 35.935C22.89 35.5268 23.4823 35.1019 24.0618 34.6614C24.5227 34.312 24.9751 33.9514 25.4201 33.5809C26.0188 33.0839 26.6047 32.568 27.1747 32.0355C27.5159 31.7182 27.8517 31.3931 28.1823 31.0625C28.7958 30.4502 29.3902 29.8156 29.9634 29.1633C30.2071 28.8881 30.4455 28.6097 30.6796 28.3279C31.2878 27.6001 31.8705 26.8502 32.4278 26.0802C32.5984 25.8462 32.7658 25.6098 32.9311 25.3713C33.5054 24.5426 34.05 23.6906 34.5649 22.8175C33.3729 22.4636 32.2212 22.0065 31.1204 21.454Z" fill="#182B68" stroke="#182B68" stroke-width="0.65" stroke-miterlimit="10"/>
</svg>
